<?xml version="1.0" encoding="UTF-8" standalone="no"?>
<!-- Created with Inkscape (http://www.inkscape.org/) -->

<svg
   xmlns:dc="http://purl.org/dc/elements/1.1/"
   xmlns:cc="http://creativecommons.org/ns#"
   xmlns:rdf="http://www.w3.org/1999/02/22-rdf-syntax-ns#"
   xmlns:svg="http://www.w3.org/2000/svg"
   xmlns="http://www.w3.org/2000/svg"
   xmlns:sodipodi="http://sodipodi.sourceforge.net/DTD/sodipodi-0.dtd"
   xmlns:inkscape="http://www.inkscape.org/namespaces/inkscape"
   width="142.00821mm"
   height="78.494469mm"
   viewBox="0 0 142.00821 78.494468"
   version="1.1"
   id="svg8"
   inkscape:version="0.92.5 (2060ec1f9f, 2020-04-08)"
   sodipodi:docname="betamejl.svg">
  <defs
     id="defs2" />
  <sodipodi:namedview
     id="base"
     pagecolor="#ffffff"
     bordercolor="#666666"
     borderopacity="1.0"
     inkscape:pageopacity="0.0"
     inkscape:pageshadow="2"
     inkscape:zoom="0.49497475"
     inkscape:cx="199.62073"
     inkscape:cy="403.59788"
     inkscape:document-units="mm"
     inkscape:current-layer="layer1"
     showgrid="false"
     inkscape:window-width="1920"
     inkscape:window-height="1001"
     inkscape:window-x="-9"
     inkscape:window-y="-9"
     inkscape:window-maximized="1" />
  <metadata
     id="metadata5">
    <rdf:RDF>
      <cc:Work
         rdf:about="">
        <dc:format>image/svg+xml</dc:format>
        <dc:type
           rdf:resource="http://purl.org/dc/dcmitype/StillImage" />
        <dc:title></dc:title>
      </cc:Work>
    </rdf:RDF>
  </metadata>
  <g
     inkscape:label="Layer 1"
     inkscape:groupmode="layer"
     id="layer1"
     transform="translate(-41.875757,-99.064814)">
    <path
       style="fill:#000000;stroke-width:0.26458335"
       d="m 67.916567,177.42759 c -5.346583,-0.58846 -7.713619,-1.17985 -10.186459,-2.54504 -4.544725,-2.50902 -8.081076,-5.55384 -10.945841,-9.42444 -2.089402,-2.823 -2.227481,-3.09632 -3.625324,-7.17633 -1.021633,-2.98193 -1.144712,-3.61316 -1.251094,-6.4165 -0.165394,-4.35838 0.296979,-7.60198 1.655559,-11.61395 0.950552,-2.80703 1.446862,-3.80286 3.08083,-6.18159 2.333237,-3.39673 5.125977,-6.10831 8.453681,-8.20802 3.090488,-1.95004 5.245659,-2.81601 8.770032,-3.5239 6.035414,-1.21225 12.943709,-0.43437 17.549399,1.97608 3.671549,1.92156 6.032744,3.67207 8.57154,6.35467 l 2.329686,2.46163 1.344819,-2.20072 c 3.004124,-4.91607 8.814485,-10.38343 13.587355,-12.78526 6.11228,-3.07586 9.57778,-3.84283 17.55124,-3.88437 5.89526,-0.29875 10.89906,1.34412 15.0634,3.38831 3.29935,1.61478 4.44271,2.33764 6.63243,4.1932 1.45521,1.23313 3.52283,3.21595 4.59471,4.40627 l 1.94887,2.1642 1.26171,-2.25076 c 2.43116,-4.33691 5.97521,-8.93799 11.61845,-15.08369 1.32425,-1.44216 2.34777,-2.68208 2.27447,-2.75537 -0.0733,-0.0733 -3.63059,-0.10502 -7.90511,-0.0705 -5.01704,0.0405 -8.15481,-0.0404 -8.85222,-0.22815 -1.25455,-0.33782 -2.54531,-1.34268 -3.0983,-2.41204 -0.88761,-1.71645 -0.21611,-4.45863 1.381,-5.639503 0.63497,-0.469487 1.63723,-0.512276 17.2167,-0.735013 9.09836,-0.130077 16.57692,-0.202059 16.61902,-0.15996 0.17917,0.179163 0.44195,29.265206 0.27192,30.171526 -0.68912,5.8589 -8.29485,4.64064 -8.62392,0.20865 l -0.0359,-2.85981 c -0.0197,-3.16466 -0.10902,-7.17 -0.19844,-8.90077 l -0.16256,-3.14684 -1.74493,1.85157 c -7.1496,7.58648 -11.05188,13.13803 -12.70043,18.06815 -1.01148,3.02492 -1.2572,6.68695 -0.80129,11.94199 0.57254,6.59938 -0.67808,13.27004 -3.57623,19.07512 -0.63424,1.2704 -1.15316,2.41241 -1.15316,2.5378 6.44346,0.14964 15.71879,-0.0196 22.70308,0.0706 6.9843,0.0902 6.64662,9.48704 -0.20367,9.44529 -7.00464,-0.0427 -24.18937,0.0322 -50.33203,0.0147 -32.059093,0.0275 -58.646451,-0.0792 -59.083013,-0.12722 z M 144.0513,166.87771 c 2.90957,-3.50532 5.27396,-8.52585 6.04188,-12.82926 0.52204,-2.92556 0.38271,-8.37265 -0.28026,-10.95648 -1.86931,-7.28532 -7.68863,-14.24161 -14.59007,-17.44063 -3.46977,-1.60835 -8.11309,-2.55297 -12.56975,-2.55713 -2.34722,-0.002 -6.22321,0.8475 -8.45786,1.85413 -0.71473,0.32196 -1.77575,0.80061 -2.35784,1.06366 -1.65779,0.74921 -4.81563,3.07666 -6.61309,4.87412 -2.13368,2.13368 -3.56161,4.26633 -5.358296,8.00277 -1.478066,3.07383 -1.97345,4.88314 -2.331297,8.51473 l -0.18548,1.88233 h -4.463731 -4.46373 l -0.0019,-0.8599 c -0.0027,-1.26197 -0.924097,-4.87431 -1.670267,-6.54843 -1.985153,-4.45393 -6.522591,-8.59421 -11.238125,-10.25446 -1.859764,-0.65479 -3.377717,-0.98479 -5.841762,-1.14893 -3.106221,0.17004 -3.963662,0.47331 -6.087148,1.28432 -4.512165,1.72332 -7.447065,4.1152 -9.990012,8.14162 -1.618389,2.5625 -1.930772,3.32709 -2.363197,5.78418 -1.226063,6.96661 0.901537,13.41996 5.890375,17.86644 1.652122,1.47251 5.375191,3.44236 7.886364,4.17261 1.660994,0.48302 13.253293,0.63641 61.826316,0.81808 l 15.78882,0.0591 1.43001,-1.72282 z"
       id="path4540"
       inkscape:connector-curvature="0"
       sodipodi:nodetypes="csssssscscccssccccccscccccscccccccsssczsccccccccscsssccccscccsssccccc" />
  </g>
</svg>
